<mxfile host="app.diagrams.net" modified="2022-08-19T15:58:38.437Z" agent="5.0 (Windows)" etag="ASYqoy8lD3Ts8JH0q6ft" version="20.2.5" type="github">
  <diagram id="WLUykvCk9a5KXr3gEcbK" name="Page-1">
    <mxGraphModel dx="1422" dy="752" grid="1" gridSize="10" guides="1" tooltips="1" connect="1" arrows="1" fold="1" page="1" pageScale="1" pageWidth="850" pageHeight="1100" math="0" shadow="0">
      <root>
        <mxCell id="0" />
        <mxCell id="1" parent="0" />
        <mxCell id="4VahikGaE-Dxck3tvNCw-5" style="edgeStyle=orthogonalEdgeStyle;rounded=0;orthogonalLoop=1;jettySize=auto;html=1;exitX=0.75;exitY=1;exitDx=0;exitDy=0;entryX=0.25;entryY=0;entryDx=0;entryDy=0;fontSize=18;" edge="1" parent="1" source="4VahikGaE-Dxck3tvNCw-2" target="4VahikGaE-Dxck3tvNCw-4">
          <mxGeometry relative="1" as="geometry" />
        </mxCell>
        <mxCell id="4VahikGaE-Dxck3tvNCw-6" style="edgeStyle=orthogonalEdgeStyle;rounded=0;orthogonalLoop=1;jettySize=auto;html=1;exitX=0.25;exitY=1;exitDx=0;exitDy=0;entryX=0.75;entryY=0;entryDx=0;entryDy=0;fontSize=18;" edge="1" parent="1" source="4VahikGaE-Dxck3tvNCw-2" target="4VahikGaE-Dxck3tvNCw-3">
          <mxGeometry relative="1" as="geometry" />
        </mxCell>
        <mxCell id="4VahikGaE-Dxck3tvNCw-2" value="&lt;div&gt;App&lt;/div&gt;" style="rounded=1;whiteSpace=wrap;html=1;fontSize=18;" vertex="1" parent="1">
          <mxGeometry x="360" y="100" width="120" height="60" as="geometry" />
        </mxCell>
        <mxCell id="4VahikGaE-Dxck3tvNCw-16" style="edgeStyle=orthogonalEdgeStyle;rounded=0;orthogonalLoop=1;jettySize=auto;html=1;exitX=0.25;exitY=1;exitDx=0;exitDy=0;entryX=0.75;entryY=0;entryDx=0;entryDy=0;fontSize=18;" edge="1" parent="1" source="4VahikGaE-Dxck3tvNCw-3" target="4VahikGaE-Dxck3tvNCw-10">
          <mxGeometry relative="1" as="geometry" />
        </mxCell>
        <mxCell id="4VahikGaE-Dxck3tvNCw-17" style="edgeStyle=orthogonalEdgeStyle;rounded=0;orthogonalLoop=1;jettySize=auto;html=1;exitX=0.5;exitY=1;exitDx=0;exitDy=0;entryX=0.5;entryY=0;entryDx=0;entryDy=0;fontSize=18;" edge="1" parent="1" source="4VahikGaE-Dxck3tvNCw-3" target="4VahikGaE-Dxck3tvNCw-11">
          <mxGeometry relative="1" as="geometry" />
        </mxCell>
        <mxCell id="4VahikGaE-Dxck3tvNCw-18" style="edgeStyle=orthogonalEdgeStyle;rounded=0;orthogonalLoop=1;jettySize=auto;html=1;exitX=0.75;exitY=1;exitDx=0;exitDy=0;entryX=0.5;entryY=0;entryDx=0;entryDy=0;fontSize=18;" edge="1" parent="1" source="4VahikGaE-Dxck3tvNCw-3" target="4VahikGaE-Dxck3tvNCw-13">
          <mxGeometry relative="1" as="geometry" />
        </mxCell>
        <mxCell id="4VahikGaE-Dxck3tvNCw-3" value="ScaleMenu" style="rounded=1;whiteSpace=wrap;html=1;fontSize=18;" vertex="1" parent="1">
          <mxGeometry x="280" y="210" width="120" height="60" as="geometry" />
        </mxCell>
        <mxCell id="4VahikGaE-Dxck3tvNCw-21" style="edgeStyle=orthogonalEdgeStyle;rounded=0;orthogonalLoop=1;jettySize=auto;html=1;exitX=0.25;exitY=1;exitDx=0;exitDy=0;entryX=0.5;entryY=0;entryDx=0;entryDy=0;fontSize=18;" edge="1" parent="1" source="4VahikGaE-Dxck3tvNCw-4" target="4VahikGaE-Dxck3tvNCw-19">
          <mxGeometry relative="1" as="geometry" />
        </mxCell>
        <mxCell id="4VahikGaE-Dxck3tvNCw-22" style="edgeStyle=orthogonalEdgeStyle;rounded=0;orthogonalLoop=1;jettySize=auto;html=1;exitX=0.75;exitY=1;exitDx=0;exitDy=0;fontSize=18;" edge="1" parent="1" source="4VahikGaE-Dxck3tvNCw-4" target="4VahikGaE-Dxck3tvNCw-20">
          <mxGeometry relative="1" as="geometry" />
        </mxCell>
        <mxCell id="4VahikGaE-Dxck3tvNCw-4" value="&lt;div&gt;ScaleInfo&lt;/div&gt;" style="rounded=1;whiteSpace=wrap;html=1;fontSize=18;" vertex="1" parent="1">
          <mxGeometry x="440" y="210" width="120" height="60" as="geometry" />
        </mxCell>
        <mxCell id="4VahikGaE-Dxck3tvNCw-7" value="Changes current scale" style="text;html=1;strokeColor=none;fillColor=none;align=right;verticalAlign=middle;whiteSpace=wrap;rounded=0;fontSize=18;" vertex="1" parent="1">
          <mxGeometry x="90" y="225" width="180" height="30" as="geometry" />
        </mxCell>
        <mxCell id="4VahikGaE-Dxck3tvNCw-8" value="Displays current scale" style="text;html=1;strokeColor=none;fillColor=none;align=left;verticalAlign=middle;whiteSpace=wrap;rounded=0;fontSize=18;" vertex="1" parent="1">
          <mxGeometry x="570" y="225" width="140" height="30" as="geometry" />
        </mxCell>
        <mxCell id="4VahikGaE-Dxck3tvNCw-10" value="JCheckbox" style="rounded=0;whiteSpace=wrap;html=1;fontSize=18;" vertex="1" parent="1">
          <mxGeometry x="120" y="320" width="100" height="30" as="geometry" />
        </mxCell>
        <mxCell id="4VahikGaE-Dxck3tvNCw-11" value="JSelect" style="rounded=0;whiteSpace=wrap;html=1;fontSize=18;" vertex="1" parent="1">
          <mxGeometry x="240" y="320" width="70" height="30" as="geometry" />
        </mxCell>
        <mxCell id="4VahikGaE-Dxck3tvNCw-13" value="JSelect" style="rounded=0;whiteSpace=wrap;html=1;fontSize=18;" vertex="1" parent="1">
          <mxGeometry x="330" y="320" width="70" height="30" as="geometry" />
        </mxCell>
        <mxCell id="4VahikGaE-Dxck3tvNCw-19" value="ScaleInfoScale" style="rounded=0;whiteSpace=wrap;html=1;fontSize=18;" vertex="1" parent="1">
          <mxGeometry x="440" y="320" width="130" height="30" as="geometry" />
        </mxCell>
        <mxCell id="4VahikGaE-Dxck3tvNCw-20" value="ScaleInfoChords" style="rounded=0;whiteSpace=wrap;html=1;fontSize=18;" vertex="1" parent="1">
          <mxGeometry x="590" y="320" width="140" height="30" as="geometry" />
        </mxCell>
      </root>
    </mxGraphModel>
  </diagram>
</mxfile>
